<svg xmlns="http://www.w3.org/2000/svg" version="1.1" xmlns:xlink="http://www.w3.org/1999/xlink" xmlns:svgjs="http://svgjs.dev/svgjs" width="1000" height="1000" viewBox="0 0 1000 1000"><rect width="1000" height="1000" fill="#ffffff"></rect><g transform="matrix(0.7,0,0,0.7,149.57575757575756,282.1265587044535)"><svg viewBox="0 0 396 247" data-background-color="#ffffff" preserveAspectRatio="xMidYMid meet" height="623" width="1000" xmlns="http://www.w3.org/2000/svg" xmlns:xlink="http://www.w3.org/1999/xlink"><g id="tight-bounds" transform="matrix(1,0,0,1,0.2400000000000091,-0.09999999999999432)"><svg viewBox="0 0 395.52 247.2" height="247.2" width="395.52"><g><svg></svg></g><g><svg viewBox="0 0 395.52 247.2" height="247.2" width="395.52"><g transform="matrix(1,0,0,1,39.55199999999999,81.06173753319503)"><svg viewBox="0 0 316.416 85.07652493360993" height="85.07652493360993" width="316.416"><g><svg viewBox="0 0 316.416 85.07652493360993" height="85.07652493360993" width="316.416"><g><svg viewBox="0 0 316.416 85.07652493360993" height="85.07652493360993" width="316.416"><g><svg viewBox="0 0 316.416 85.07652493360993" height="85.07652493360993" width="316.416"><g><svg viewBox="0 0 316.416 85.07652493360993" height="85.07652493360993" width="316.416" id="textblock"><g><svg viewBox="0 0 316.416 55.939170682049536" height="55.939170682049536" width="316.416"><g transform="matrix(1,0,0,1,0,0)"><svg width="316.416" viewBox="2.299999952316284 -25.350000381469727 147.33999633789062 26.05000114440918" height="55.939170682049536" data-palette-color="#0c653f"><path d="M13.9 0.7L13.9 0.7Q9.2 0.7 6.1-1.4 3-3.5 2.3-7.75L2.3-7.75 7.1-8.9Q7.5-6.85 8.45-5.65 9.4-4.45 10.83-3.95 12.25-3.45 13.9-3.45L13.9-3.45Q16.35-3.45 17.68-4.4 19-5.35 19-6.85L19-6.85Q19-8.35 17.75-9.05 16.5-9.75 14.05-10.2L14.05-10.2 12.35-10.5Q9.85-10.95 7.8-11.8 5.75-12.65 4.55-14.15 3.35-15.65 3.35-18L3.35-18Q3.35-21.5 5.95-23.43 8.55-25.35 12.85-25.35L12.85-25.35Q17-25.35 19.68-23.48 22.35-21.6 23.15-18.4L23.15-18.4 18.35-17.05Q17.9-19.3 16.45-20.23 15-21.15 12.85-21.15L12.85-21.15Q10.75-21.15 9.55-20.38 8.35-19.6 8.35-18.2L8.35-18.2Q8.35-16.7 9.53-16 10.7-15.3 12.7-14.95L12.7-14.95 14.45-14.65Q17.1-14.2 19.3-13.4 21.5-12.6 22.78-11.1 24.05-9.6 24.05-7.1L24.05-7.1Q24.05-3.4 21.3-1.35 18.55 0.7 13.9 0.7ZM37.5 0.7L37.5 0.7Q34.85 0.7 32.77-0.2 30.7-1.1 29.47-2.85 28.25-4.6 28.25-7.1L28.25-7.1Q28.25-9.65 29.47-11.33 30.7-13 32.82-13.85 34.95-14.7 37.65-14.7L37.65-14.7 45.15-14.7 45.15-16.3Q45.15-18.45 43.85-19.75 42.55-21.05 39.85-21.05L39.85-21.05Q37.2-21.05 35.8-19.8 34.4-18.55 33.95-16.55L33.95-16.55 29.15-18.1Q29.75-20.1 31.07-21.73 32.4-23.35 34.6-24.35 36.8-25.35 39.9-25.35L39.9-25.35Q44.7-25.35 47.45-22.9 50.2-20.45 50.2-15.95L50.2-15.95 50.2-5.8Q50.2-4.3 51.6-4.3L51.6-4.3 53.7-4.3 53.7 0 49.85 0Q48.1 0 47-0.9 45.9-1.8 45.9-3.35L45.9-3.35 45.9-3.5 45.15-3.5Q44.75-2.75 43.95-1.75 43.15-0.75 41.6-0.03 40.05 0.7 37.5 0.7ZM38.25-3.55L38.25-3.55Q41.35-3.55 43.25-5.33 45.15-7.1 45.15-10.2L45.15-10.2 45.15-10.7 37.95-10.7Q35.9-10.7 34.65-9.83 33.4-8.95 33.4-7.25L33.4-7.25Q33.4-5.55 34.7-4.55 36-3.55 38.25-3.55ZM63.85 0L58.7 0 58.7-24.65 63.75-24.65 63.75-21.75 64.55-21.75Q65.25-23.05 66.8-24.05 68.34-25.05 71-25.05L71-25.05Q73.75-25.05 75.42-23.93 77.09-22.8 77.95-21.05L77.95-21.05 78.75-21.05Q79.59-22.75 81.22-23.9 82.84-25.05 85.84-25.05L85.84-25.05Q88.25-25.05 90.09-24.08 91.95-23.1 93.05-21.18 94.15-19.25 94.15-16.4L94.15-16.4 94.15 0 89 0 89-16Q89-18.25 87.77-19.48 86.55-20.7 84.3-20.7L84.3-20.7Q81.9-20.7 80.45-19.15 79-17.6 79-14.7L79-14.7 79 0 73.84 0 73.84-16Q73.84-18.25 72.62-19.48 71.4-20.7 69.15-20.7L69.15-20.7Q66.75-20.7 65.3-19.15 63.85-17.6 63.85-14.7L63.85-14.7 63.85 0ZM112.84 0.7L112.84 0.7Q109.09 0.7 106.29-0.88 103.49-2.45 101.92-5.33 100.34-8.2 100.34-12L100.34-12 100.34-12.6Q100.34-16.45 101.89-19.33 103.44-22.2 106.22-23.78 108.99-25.35 112.64-25.35L112.64-25.35Q116.19-25.35 118.87-23.78 121.54-22.2 123.04-19.4 124.54-16.6 124.54-12.85L124.54-12.85 124.54-10.9 105.59-10.9Q105.69-7.65 107.77-5.73 109.84-3.8 112.94-3.8L112.94-3.8Q115.84-3.8 117.32-5.1 118.79-6.4 119.59-8.1L119.59-8.1 123.84-5.9Q123.14-4.5 121.82-2.95 120.49-1.4 118.34-0.35 116.19 0.7 112.84 0.7ZM105.64-14.85L105.64-14.85 119.29-14.85Q119.09-17.65 117.29-19.23 115.49-20.8 112.59-20.8L112.59-20.8Q109.69-20.8 107.87-19.23 106.04-17.65 105.64-14.85ZM149.64 0L129.09 0 129.09-6.3 143.64-19.6 143.64-20.3 129.59-20.3 129.59-24.65 149.24-24.65 149.24-18.3 134.64-5 134.64-4.35 149.64-4.35 149.64 0Z" opacity="1" transform="matrix(1,0,0,1,0,0)" fill="#000000" class="undefined-text-0" data-fill-palette-color="primary" id="text-0"></path></svg></g></svg></g><g transform="matrix(1,0,0,1,0,69.14506633998506)"><svg viewBox="0 0 316.416 15.93145859362486" height="15.93145859362486" width="316.416"><g transform="matrix(1,0,0,1,0,0)"><svg width="316.416" viewBox="4 -40.150001525878906 936.3599853515625 47.150001525878906" height="15.93145859362486" data-palette-color="#4f645c"><path d="M14.85-5L21.65-5Q23.5-5 24.25-6.05 25-7.1 25-8.4L25-8.4 25-31.3Q25-32.55 24.25-33.6 23.5-34.65 21.65-34.65L21.65-34.65 9.95-34.65 9.9-2.05Q9.9-0.95 9.05-0.3 8.2 0.35 6.95 0.35L6.95 0.35Q4 0.35 4-2.05L4-2.05 4-36.7Q4-38.5 4.93-39.1 5.85-39.7 7.15-39.7L7.15-39.7 22.9-39.7Q24.2-39.7 25.6-39.15 27-38.6 28.3-37.75L28.3-37.75 28.25-37.75Q29.55-36.8 30.25-35.27 30.95-33.75 30.95-31.75L30.95-31.75 30.95-8Q30.95-3.95 28.25-1.95L28.25-1.95Q26.95-1 25.58-0.48 24.2 0.05 22.9 0.05L22.9 0.05 14.5 0.05Q13.65 0.05 13.18-0.65 12.7-1.35 12.7-2.5L12.7-2.5Q12.7-5 14.85-5L14.85-5ZM43.55-22.15L43.55-8Q43.55-6.8 44.32-5.75 45.1-4.7 46.95-4.7L46.95-4.7 53.2-4.7Q55.05-4.7 55.82-5.63 56.6-6.55 56.6-7.75L56.6-7.75 56.6-8.3Q56.6-10.65 59.35-10.65L59.35-10.65Q62.1-10.65 62.1-8.3L62.1-8.3 62.1-7.7Q62.1-5.6 61.42-4.25 60.75-2.9 59.4-1.9L59.4-1.9Q56.75 0 54.1 0L54.1 0 45.7 0Q43.05 0 40.55-1.9L40.55-1.9Q39.35-2.9 38.7-4.42 38.05-5.95 38.05-7.95L38.05-7.95 38.05-22.2Q38.05-26.25 40.55-28.2L40.55-28.2Q41.8-29.1 43.12-29.63 44.45-30.15 45.7-30.15L45.7-30.15 54.1-30.15Q55.3-30.15 56.75-29.68 58.2-29.2 59.45-28.4L59.45-28.4Q60.65-27.55 61.37-26.05 62.1-24.55 62.1-22.5L62.1-22.5 62.1-15.75Q62.1-14.6 61.42-13.7 60.75-12.8 58.95-12.8L58.95-12.8 48.15-12.8Q46.35-12.8 46.25-15.15L46.25-15.15Q46.25-17.5 48.15-17.5L48.15-17.5 56.65-17.5 56.6-22.15Q56.6-23.4 55.82-24.43 55.05-25.45 53.2-25.45L53.2-25.45 46.95-25.45Q45.1-25.45 44.32-24.43 43.55-23.4 43.55-22.15L43.55-22.15ZM79.2 0.3L78.65 0.3Q78.55 0.3 78.4 0.28 78.25 0.25 78.1 0.25L78.1 0.25Q77.85 0.25 77.4 0.25L77.4 0.25Q76.95 0.25 76.55 0.2L76.55 0.2Q75.7 0.15 75.1-0.28 74.5-0.7 74.25-1.3L74.25-1.3 65.85-27.1Q65.6-28.15 66.12-28.98 66.65-29.8 67.8-30.2L67.8-30.2Q68.15-30.3 68.5-30.35 68.85-30.4 69.1-30.4L69.1-30.4Q70.65-30.4 71.25-28.7L71.25-28.7 74.9-17.35 78.75-5.45 86.25-28.7Q86.8-30.45 88.25-30.45L88.25-30.45Q88.8-30.45 89.65-30.2L89.65-30.2Q90.95-29.85 91.45-29.03 91.95-28.2 91.6-27.1L91.6-27.1 83.25-1.3Q82.8 0.1 80.9 0.2L80.9 0.2Q80.8 0.2 80.67 0.23 80.55 0.25 80.45 0.25L80.45 0.25Q80.05 0.3 79.75 0.3L79.75 0.3Q79.45 0.3 79.2 0.3L79.2 0.3ZM104.49-39.7L115.39-39.7Q116.69-39.7 118.09-39.15 119.49-38.6 120.79-37.75L120.79-37.75 120.74-37.75Q122.04-36.8 122.74-35.27 123.44-33.75 123.44-31.75L123.44-31.75 123.44-8Q123.44-3.95 120.74-1.95L120.74-1.95Q119.44-1 118.07-0.48 116.69 0.05 115.39 0.05L115.39 0.05 104.49 0.05Q103.19 0.05 101.82-0.48 100.44-1 99.14-1.95L99.14-1.95Q97.84-2.95 97.14-4.42 96.44-5.9 96.44-8L96.44-8 96.44-31.75Q96.44-33.75 97.14-35.27 97.84-36.8 99.14-37.75L99.14-37.75 99.09-37.75Q100.39-38.6 101.79-39.15 103.19-39.7 104.49-39.7L104.49-39.7ZM105.74-5L114.14-5Q115.99-5 116.74-6.05 117.49-7.1 117.49-8.4L117.49-8.4 117.49-31.3Q117.49-32.55 116.74-33.6 115.99-34.65 114.14-34.65L114.14-34.65 105.74-34.65Q103.89-34.65 103.14-33.6 102.39-32.55 102.39-31.3L102.39-31.3 102.39-8.4Q102.39-7.1 103.14-6.05 103.89-5 105.74-5L105.74-5ZM146.59 0L140.64 0Q138.84 0 138.74-2.35L138.74-2.35Q138.74-4.7 140.64-4.7L140.64-4.7 145.69-4.7Q147.54-4.7 148.31-5.75 149.09-6.8 149.09-8L149.09-8 149.09-22.1Q149.09-23.35 148.31-24.43 147.54-25.5 145.64-25.4L145.64-25.4 136.04-25.4 136.04 4.65Q136.04 7 133.29 7L133.29 7Q130.54 7 130.54 4.6L130.54 4.6 130.54-27.15Q130.54-28.9 131.44-29.5 132.34-30.1 133.64-30.1L133.64-30.1 146.59-30.1Q147.89-30.1 149.22-29.65 150.54-29.2 151.94-28.4L151.94-28.4Q153.14-27.55 153.87-26.03 154.59-24.5 154.59-22.45L154.59-22.45 154.59-7.65Q154.59-3.55 151.94-1.8L151.94-1.8Q149.14 0 146.59 0L146.59 0ZM169.74-17.5L177.09-17.5Q178.34-17.5 179.76-16.93 181.19-16.35 182.44-15.5L182.44-15.5 182.39-15.5Q183.69-14.55 184.39-13.05 185.09-11.55 185.09-9.45L185.09-9.45 185.09-7.95Q185.09-3.85 182.39-1.9L182.39-1.9Q181.09-0.9 179.74-0.45 178.39 0 177.09 0L177.09 0 168.59 0Q167.29 0 165.94-0.45 164.59-0.9 163.29-1.9L163.29-1.9Q160.59-3.8 160.59-7.95L160.59-7.95 160.59-8.55Q160.59-10.7 163.34-10.65L163.34-10.65Q166.14-10.65 166.14-8.55L166.14-8.55 166.14-8Q166.14-6.8 166.89-5.75 167.64-4.7 169.54-4.7L169.54-4.7 176.14-4.7Q178.04-4.7 178.79-5.75 179.54-6.8 179.54-8L179.54-8 179.54-9.4Q179.54-10.05 179.36-10.65 179.19-11.25 178.79-11.73 178.39-12.2 177.74-12.5 177.09-12.8 176.14-12.8L176.14-12.8 168.84-12.8Q166.29-12.8 163.49-14.6L163.49-14.6Q160.84-16.3 160.84-20.45L160.84-20.45 160.84-22.15Q160.84-24.15 161.54-25.68 162.24-27.2 163.54-28.15L163.54-28.15 163.49-28.15Q164.74-29 166.14-29.55 167.54-30.1 168.84-30.1L168.84-30.1 176.84-30.1Q178.14-30.1 179.51-29.55 180.89-29 182.19-28.15L182.19-28.15 182.14-28.15Q183.44-27.2 184.14-25.68 184.84-24.15 184.84-22.15L184.84-22.15 184.84-21.7Q184.84-20.65 184.14-20.18 183.44-19.7 182.09-19.65L182.09-19.65Q179.34-19.6 179.34-21.7L179.34-21.7 179.34-22.1Q179.34-23.35 178.56-24.38 177.79-25.4 175.94-25.4L175.94-25.4 169.74-25.4Q167.89-25.4 167.11-24.38 166.34-23.35 166.34-22.1L166.34-22.1 166.34-20.9Q166.34-19.6 167.11-18.55 167.89-17.5 169.74-17.5L169.74-17.5ZM191.69 3.95L191.69 3.95Q193.29 3.1 194.19 2.27 195.09 1.45 195.19 0.05L195.19 0.05Q193.49-0.25 192.34-1.4 191.19-2.55 191.19-4.1L191.19-4.1Q191.19-5.75 192.34-6.93 193.49-8.1 195.19-8.1L195.19-8.1Q196.84-8.1 197.99-6.98 199.14-5.85 199.24-4.1L199.24-4.1Q199.49 0.35 197.44 2.3L197.44 2.3Q196.49 3.35 195.46 4.08 194.44 4.8 193.54 5.1L193.54 5.1Q192.79 5.4 192.09 5.4L192.09 5.4Q191.94 5.4 191.71 5.3 191.49 5.2 191.34 5.1L191.34 5.1Q190.89 4.4 191.69 3.95ZM227.18-34.65L227.18-2.1Q227.18 0.3 224.23 0.3L224.23 0.3Q221.28 0.3 221.28-2.1L221.28-2.1 221.28-36.7Q221.28-37.85 221.93-38.78 222.58-39.7 224.43-39.7L224.43-39.7 241.43-39.7Q243.23-39.7 243.33-37.2L243.33-37.2Q243.43-34.65 241.43-34.65L241.43-34.65 227.18-34.65ZM239.98-20.65L239.98-20.65Q239.98-19.8 239.66-19.03 239.33-18.25 238.76-17.7 238.18-17.15 237.43-16.82 236.68-16.5 235.78-16.5L235.78-16.5Q234.08-16.5 232.88-17.7 231.68-18.9 231.68-20.65L231.68-20.65Q231.68-22.4 232.88-23.6 234.08-24.8 235.78-24.8L235.78-24.8Q236.68-24.8 237.43-24.48 238.18-24.15 238.76-23.58 239.33-23 239.66-22.25 239.98-21.5 239.98-20.65ZM272.38-28L272.38-7.95Q272.38-5.95 271.68-4.4 270.98-2.85 269.68-1.9L269.68-1.9 269.73-1.9Q268.48-1.05 267.08-0.53 265.68 0 264.38 0L264.38 0 256.33 0Q255.08 0 253.65-0.53 252.23-1.05 250.98-1.9L250.98-1.9 251.03-1.9Q249.73-2.85 249.03-4.4 248.33-5.95 248.33-7.95L248.33-7.95 248.33-28Q248.33-30.4 251.08-30.4L251.08-30.4Q253.83-30.4 253.83-28L253.83-28 253.83-8.35Q253.83-6.95 254.53-5.9L254.53-5.9Q255.18-4.7 257.23-4.7L257.23-4.7 263.48-4.7Q265.48-4.7 266.13-5.9L266.13-5.9 266.08-5.85Q266.88-7.05 266.88-8.35L266.88-8.35 266.88-28Q266.88-30.4 269.63-30.4L269.63-30.4Q272.38-30.4 272.38-28L272.38-28ZM284.33-37.8L284.33-1.95Q284.33 0.4 281.58 0.4L281.58 0.4Q278.78 0.4 278.78-1.95L278.78-1.95 278.78-37.8Q278.78-40.15 281.58-40.15L281.58-40.15Q284.33-40.15 284.33-37.8L284.33-37.8ZM296.92-37.8L296.92-1.95Q296.92 0.4 294.17 0.4L294.17 0.4Q291.37 0.4 291.37-1.95L291.37-1.95 291.37-37.8Q291.37-40.15 294.17-40.15L294.17-40.15Q296.92-40.15 296.92-37.8L296.92-37.8ZM328.57-22.85L338.22-22.85Q339.52-22.85 340.92-22.3 342.32-21.75 343.62-20.85L343.62-20.85 343.57-20.85Q344.87-19.95 345.57-18.4 346.27-16.85 346.27-14.85L346.27-14.85 346.27-8Q346.27-3.95 343.57-1.95L343.57-1.95Q342.27-1 340.89-0.48 339.52 0.05 338.22 0.05L338.22 0.05 327.32 0.05Q326.02 0.05 324.64-0.48 323.27-1 321.97-1.95L321.97-1.95Q319.27-3.95 319.27-8L319.27-8 319.27-11.3Q319.27-13.65 322.22-13.65L322.22-13.65Q325.22-13.65 325.22-11.3L325.22-11.3 325.22-8.4Q325.22-7.1 325.97-6.05 326.72-5 328.57-5L328.57-5 336.97-5Q338.82-5 339.57-6.05 340.32-7.1 340.32-8.4L340.32-8.4 340.32-14.45Q340.32-15.7 339.57-16.78 338.82-17.85 336.97-17.85L336.97-17.85 327.32-17.85Q324.72-17.85 321.97-19.75L321.97-19.75Q319.27-21.85 319.27-25.8L319.27-25.8 319.27-31.75Q319.27-33.75 319.97-35.27 320.67-36.8 321.97-37.75L321.97-37.75 321.92-37.75Q323.22-38.6 324.62-39.15 326.02-39.7 327.32-39.7L327.32-39.7 338.22-39.7Q339.52-39.7 340.92-39.15 342.32-38.6 343.62-37.75L343.62-37.75 343.57-37.75Q344.87-36.8 345.57-35.27 346.27-33.75 346.27-31.75L346.27-31.75 346.27-28.8Q346.27-26.45 343.27-26.45L343.27-26.45Q340.32-26.45 340.32-28.8L340.32-28.8 340.32-31.3Q340.32-32.55 339.57-33.6 338.82-34.65 336.97-34.65L336.97-34.65 328.57-34.65Q326.72-34.65 325.97-33.6 325.22-32.55 325.22-31.3L325.22-31.3 325.22-26.2Q325.22-24.9 325.97-23.88 326.72-22.85 328.57-22.85L328.57-22.85ZM364.37-25.4L360.22-25.4 360.22-7.2Q360.22-5.9 360.77-5.2 361.32-4.5 363.12-4.5L363.12-4.5 364.42-4.5Q366.37-4.5 366.27-2.2L366.27-2.2Q366.27 0.15 364.42 0.15L364.42 0.15 362.77 0.15Q361.17 0.15 359.77-0.28 358.37-0.7 357.07-1.5L357.07-1.5 357.07-1.45Q354.62-3.05 354.62-7.15L354.62-7.15 354.62-25.4 352.67-25.4Q350.87-25.4 350.77-27.75L350.77-27.75Q350.77-30.1 352.67-30.1L352.67-30.1 354.62-30.1 354.62-35.45Q354.62-37.85 357.47-37.85L357.47-37.85Q360.22-37.85 360.22-35.45L360.22-35.45 360.22-30.1 364.37-30.1Q366.32-30.1 366.22-27.75L366.22-27.75Q366.22-25.4 364.37-25.4L364.37-25.4ZM384.71 0L378.16 0Q376.61 0 375.21-0.43 373.81-0.85 372.51-1.65L372.51-1.65 372.51-1.6Q370.06-3.15 370.06-7.3L370.06-7.3 370.06-9.75Q370.06-11.8 370.79-13.33 371.51-14.85 372.81-15.75L372.81-15.75 372.76-15.75Q374.01-16.6 375.41-17.03 376.81-17.45 378.11-17.45L378.11-17.45 389.16-17.45 389.16-22.1Q389.16-23.35 388.39-24.38 387.61-25.4 385.76-25.4L385.76-25.4 379.91-25.4Q378.01-25.4 377.29-24.48 376.56-23.55 376.56-22.3L376.56-22.3 376.56-21.9Q376.56-19.3 373.76-19.3L373.76-19.3Q370.96-19.3 370.96-21.9L370.96-21.9 370.96-22.35Q370.96-24.4 371.69-25.8 372.41-27.2 373.66-28.15L373.66-28.15 373.61-28.15Q374.91-29 376.34-29.55 377.76-30.1 379.06-30.1L379.06-30.1 386.66-30.1Q387.91-30.1 389.34-29.55 390.76-29 392.01-28.15L392.01-28.15 391.96-28.15Q393.26-27.2 393.96-25.68 394.66-24.15 394.66-22.15L394.66-22.15 394.66-2.1Q394.66 0.3 391.91 0.3L391.91 0.3Q391.36 0.3 390.89 0.25 390.41 0.2 390.04-0.03 389.66-0.25 389.44-0.68 389.21-1.1 389.21-1.8L389.21-1.8 389.16-12.75 379.06-12.75Q377.96-12.75 377.36-12.5 376.76-12.25 376.41-11.7L376.41-11.7Q376.01-10.85 375.84-10.38 375.66-9.9 375.66-9.3L375.66-9.3 375.66-7.35Q375.66-6.05 376.44-5.38 377.21-4.7 379.11-4.7L379.11-4.7 384.71-4.7Q386.56-4.7 386.56-2.35L386.56-2.35Q386.56-1.35 386.11-0.68 385.66 0 384.71 0L384.71 0ZM425.16-10.3L425.16-7.95Q425.16-3.85 422.46-1.9L422.46-1.9Q419.81 0 417.16 0L417.16 0 408.76 0Q406.11 0 403.61-1.9L403.61-1.9Q402.41-2.9 401.76-4.42 401.11-5.95 401.11-7.95L401.11-7.95 401.11-22.2Q401.11-26.25 403.61-28.2L403.61-28.2Q404.86-29.1 406.19-29.63 407.51-30.15 408.76-30.15L408.76-30.15 417.16-30.15Q418.36-30.15 419.81-29.68 421.26-29.2 422.51-28.4L422.51-28.4Q423.71-27.55 424.44-26.05 425.16-24.55 425.16-22.5L425.16-22.5 425.16-20Q425.16-17.6 422.41-17.6L422.41-17.6Q419.66-17.6 419.66-20L419.66-20 419.66-22.15Q419.66-23.4 418.89-24.43 418.11-25.45 416.26-25.45L416.26-25.45 410.01-25.45Q408.16-25.45 407.39-24.43 406.61-23.4 406.61-22.15L406.61-22.15 406.61-8Q406.61-6.8 407.39-5.75 408.16-4.7 410.01-4.7L410.01-4.7 416.26-4.7Q418.11-4.7 418.89-5.75 419.66-6.8 419.66-8L419.66-8 419.66-10.3Q419.66-12.65 422.41-12.65L422.41-12.65Q425.16-12.65 425.16-10.3L425.16-10.3ZM452.86-26.5L436.91-8.35 436.91-2Q436.91 0.35 434.16 0.35L434.16 0.35Q431.41 0.35 431.41-2L431.41-2 431.41-37.6Q431.41-40 434.16-40L434.16-40Q436.91-40 436.91-37.6L436.91-37.6 436.91-16.4Q438.16-17.9 439.68-19.63 441.21-21.35 442.73-23.13 444.26-24.9 445.76-26.63 447.26-28.35 448.56-29.85L448.56-29.85 448.56-29.8Q449.46-30.85 450.36-30.85L450.36-30.85Q450.86-30.85 451.33-30.63 451.81-30.4 452.36-30L452.36-30 452.31-30Q453.51-29 453.51-28L453.51-28Q453.51-27.65 453.36-27.23 453.21-26.8 452.86-26.5L452.86-26.5ZM448.11-13.75L453.61-3.35Q453.96-2.7 453.96-2L453.96-2Q453.96-0.7 452.46-0.05L452.46-0.05Q451.46 0.55 450.66 0.55L450.66 0.55Q450.11 0.55 449.61 0.18 449.11-0.2 448.81-0.75L448.81-0.75 443.81-10.4Q443.36-11.15 443.36-11.9L443.36-11.9Q443.36-13.15 444.66-14L444.66-14Q445.01-14.25 445.38-14.45 445.76-14.65 446.21-14.75L446.21-14.75Q446.76-14.85 447.26-14.55 447.76-14.25 448.11-13.75L448.11-13.75ZM458.16 3.95L458.16 3.95Q459.76 3.1 460.66 2.27 461.56 1.45 461.66 0.05L461.66 0.05Q459.96-0.25 458.81-1.4 457.66-2.55 457.66-4.1L457.66-4.1Q457.66-5.75 458.81-6.93 459.96-8.1 461.66-8.1L461.66-8.1Q463.31-8.1 464.46-6.98 465.61-5.85 465.71-4.1L465.71-4.1Q465.96 0.35 463.91 2.3L463.91 2.3Q462.96 3.35 461.93 4.08 460.91 4.8 460.01 5.1L460.01 5.1Q459.26 5.4 458.56 5.4L458.56 5.4Q458.41 5.4 458.18 5.3 457.96 5.2 457.81 5.1L457.81 5.1Q457.36 4.4 458.16 3.95ZM509.85-10.5L509.85-37.55Q509.85-39.95 512.8-39.95L512.8-39.95Q515.75-39.95 515.75-37.55L515.75-37.55 515.75-3.05Q515.75-1.3 513.9-0.5L513.9-0.5 513.95-0.5Q513.15-0.15 512.25 0.05 511.35 0.25 510.5 0.25L510.5 0.25Q509.85 0.25 509.15 0.13 508.45 0 507.83-0.28 507.2-0.55 506.68-1.03 506.15-1.5 505.85-2.2L505.85-2.2 495-29.25 493.65-29.1 493.65-2.1Q493.65 0.3 490.65 0.3L490.65 0.3Q487.7 0.3 487.7-2.1L487.7-2.1 487.7-36.55Q487.7-38.6 489.5-39.3L489.5-39.3Q491.15-39.95 493-39.95L493-39.95Q494.3-39.95 495.63-39.43 496.95-38.9 497.65-37.45L497.65-37.45 508.45-10.35 509.85-10.5ZM528.25-22.15L528.25-8Q528.25-6.8 529.02-5.75 529.8-4.7 531.65-4.7L531.65-4.7 537.9-4.7Q539.75-4.7 540.52-5.63 541.3-6.55 541.3-7.75L541.3-7.75 541.3-8.3Q541.3-10.65 544.05-10.65L544.05-10.65Q546.8-10.65 546.8-8.3L546.8-8.3 546.8-7.7Q546.8-5.6 546.12-4.25 545.45-2.9 544.1-1.9L544.1-1.9Q541.45 0 538.8 0L538.8 0 530.4 0Q527.75 0 525.25-1.9L525.25-1.9Q524.05-2.9 523.4-4.42 522.75-5.95 522.75-7.95L522.75-7.95 522.75-22.2Q522.75-26.25 525.25-28.2L525.25-28.2Q526.5-29.1 527.82-29.63 529.15-30.15 530.4-30.15L530.4-30.15 538.8-30.15Q540-30.15 541.45-29.68 542.9-29.2 544.15-28.4L544.15-28.4Q545.35-27.55 546.07-26.05 546.8-24.55 546.8-22.5L546.8-22.5 546.8-15.75Q546.8-14.6 546.12-13.7 545.45-12.8 543.65-12.8L543.65-12.8 532.85-12.8Q531.05-12.8 530.95-15.15L530.95-15.15Q530.95-17.5 532.85-17.5L532.85-17.5 541.35-17.5 541.3-22.15Q541.3-23.4 540.52-24.43 539.75-25.45 537.9-25.45L537.9-25.45 531.65-25.45Q529.8-25.45 529.02-24.43 528.25-23.4 528.25-22.15L528.25-22.15ZM563.84-25.4L559.69-25.4 559.69-7.2Q559.69-5.9 560.24-5.2 560.79-4.5 562.59-4.5L562.59-4.5 563.89-4.5Q565.84-4.5 565.74-2.2L565.74-2.2Q565.74 0.15 563.89 0.15L563.89 0.15 562.24 0.15Q560.64 0.15 559.24-0.28 557.84-0.7 556.54-1.5L556.54-1.5 556.54-1.45Q554.09-3.05 554.09-7.15L554.09-7.15 554.09-25.4 552.14-25.4Q550.34-25.4 550.24-27.75L550.24-27.75Q550.24-30.1 552.14-30.1L552.14-30.1 554.09-30.1 554.09-35.45Q554.09-37.85 556.94-37.85L556.94-37.85Q559.69-37.85 559.69-35.45L559.69-35.45 559.69-30.1 563.84-30.1Q565.79-30.1 565.69-27.75L565.69-27.75Q565.69-25.4 563.84-25.4L563.84-25.4ZM584.14-15.6L580.59-1.55 580.64-1.6Q580.29-0.45 579.29-0.1 578.29 0.25 577.29 0.25L577.29 0.25Q576.34 0.25 575.32-0.1 574.29-0.45 573.99-1.6L573.99-1.6 574.04-1.55 567.49-27.45Q566.89-29.55 569.44-30.25L569.44-30.25Q571.89-30.9 572.59-28.55L572.59-28.55 572.59-28.6 576.64-12.3 577.99-12.3 582.04-28.6Q582.29-29.65 583.17-29.98 584.04-30.3 584.79-30.3L584.79-30.3Q585.64-30.3 586.47-29.93 587.29-29.55 587.59-28.6L587.59-28.6Q588.04-26.8 588.42-25.25 588.79-23.7 589.14-22.25 589.49-20.8 589.82-19.4 590.14-18 590.54-16.5L590.54-16.5 591.64-12.25 592.99-12.25Q593.99-16.3 595.02-20.43 596.04-24.55 597.04-28.6L597.04-28.6 596.99-28.55Q597.69-30.9 600.14-30.25L600.14-30.25Q602.69-29.65 602.09-27.45L602.09-27.45 595.59-1.55 595.64-1.6Q595.34-0.45 594.32-0.1 593.29 0.25 592.29 0.25L592.29 0.25Q591.34 0.25 590.34-0.1 589.34-0.45 588.99-1.6L588.99-1.6 589.04-1.55 585.49-15.6 584.14-15.6ZM613.99-30.1L621.99-30.1Q623.29-30.1 624.66-29.55 626.04-29 627.34-28.15L627.34-28.15 627.29-28.15Q628.59-27.2 629.29-25.68 629.99-24.15 629.99-22.15L629.99-22.15 629.99-7.95Q629.99-3.85 627.29-1.9L627.29-1.9Q624.64 0 621.99 0L621.99 0 613.99 0Q612.69 0 611.34-0.45 609.99-0.9 608.69-1.9L608.69-1.9Q605.99-3.8 605.99-7.95L605.99-7.95 605.99-22.15Q605.99-24.15 606.69-25.68 607.39-27.2 608.69-28.15L608.69-28.15 608.64-28.15Q609.89-29 611.29-29.55 612.69-30.1 613.99-30.1L613.99-30.1ZM614.89-4.7L621.09-4.7Q622.94-4.7 623.71-5.75 624.49-6.8 624.49-8L624.49-8 624.49-22.1Q624.49-23.35 623.71-24.38 622.94-25.4 621.09-25.4L621.09-25.4 614.89-25.4Q613.04-25.4 612.26-24.38 611.49-23.35 611.49-22.1L611.49-22.1 611.49-8Q611.49-6.8 612.26-5.75 613.04-4.7 614.89-4.7L614.89-4.7ZM641.69-22.75L641.69-2.1Q641.69 0.3 638.94 0.3L638.94 0.3Q636.09 0.3 636.09-2.1L636.09-2.1 636.09-22.8Q636.09-26.9 638.54-28.5L638.54-28.5Q640.99-30.1 644.19-30.1L644.19-30.1 649.89-30.1Q651.74-30.1 651.74-27.75L651.74-27.75Q651.84-25.4 649.89-25.4L649.89-25.4 644.59-25.4Q642.79-25.4 642.24-24.7 641.69-24 641.69-22.75L641.69-22.75ZM677.43-26.5L661.48-8.35 661.48-2Q661.48 0.35 658.73 0.35L658.73 0.35Q655.98 0.35 655.98-2L655.98-2 655.98-37.6Q655.98-40 658.73-40L658.73-40Q661.48-40 661.48-37.6L661.48-37.6 661.48-16.4Q662.73-17.9 664.26-19.63 665.78-21.35 667.31-23.13 668.83-24.9 670.33-26.63 671.83-28.35 673.13-29.85L673.13-29.85 673.13-29.8Q674.03-30.85 674.93-30.85L674.93-30.85Q675.43-30.85 675.91-30.63 676.38-30.4 676.93-30L676.93-30 676.88-30Q678.08-29 678.08-28L678.08-28Q678.08-27.65 677.93-27.23 677.78-26.8 677.43-26.5L677.43-26.5ZM672.68-13.75L678.18-3.35Q678.53-2.7 678.53-2L678.53-2Q678.53-0.7 677.03-0.05L677.03-0.05Q676.03 0.55 675.23 0.55L675.23 0.55Q674.68 0.55 674.18 0.18 673.68-0.2 673.38-0.75L673.38-0.75 668.38-10.4Q667.93-11.15 667.93-11.9L667.93-11.9Q667.93-13.15 669.23-14L669.23-14Q669.58-14.25 669.96-14.45 670.33-14.65 670.78-14.75L670.78-14.75Q671.33-14.85 671.83-14.55 672.33-14.25 672.68-13.75L672.68-13.75ZM682.73 3.95L682.73 3.95Q684.33 3.1 685.23 2.27 686.13 1.45 686.23 0.05L686.23 0.05Q684.53-0.25 683.38-1.4 682.23-2.55 682.23-4.1L682.23-4.1Q682.23-5.75 683.38-6.93 684.53-8.1 686.23-8.1L686.23-8.1Q687.88-8.1 689.03-6.98 690.18-5.85 690.28-4.1L690.28-4.1Q690.53 0.35 688.48 2.3L688.48 2.3Q687.53 3.35 686.51 4.08 685.48 4.8 684.58 5.1L684.58 5.1Q683.83 5.4 683.13 5.4L683.13 5.4Q682.98 5.4 682.76 5.3 682.53 5.2 682.38 5.1L682.38 5.1Q681.93 4.4 682.73 3.95ZM739.23-11.3L739.23-8Q739.23-3.95 736.53-1.95L736.53-1.95Q735.23-1 733.85-0.48 732.48 0.05 731.18 0.05L731.18 0.05 720.28 0.05Q718.98 0.05 717.6-0.48 716.23-1 714.93-1.95L714.93-1.95Q713.63-2.95 712.93-4.42 712.23-5.9 712.23-8L712.23-8 712.23-31.75Q712.23-33.75 712.93-35.27 713.63-36.8 714.93-37.75L714.93-37.75 714.88-37.75Q716.18-38.6 717.58-39.15 718.98-39.7 720.28-39.7L720.28-39.7 731.18-39.7Q732.48-39.7 733.88-39.15 735.28-38.6 736.58-37.75L736.58-37.75 736.53-37.75Q737.83-36.8 738.53-35.27 739.23-33.75 739.23-31.75L739.23-31.75 739.23-28.3Q739.23-25.9 736.23-25.9L736.23-25.9Q733.28-25.9 733.28-28.3L733.28-28.3 733.28-31.3Q733.28-32.55 732.53-33.6 731.78-34.65 729.93-34.65L729.93-34.65 721.53-34.65Q719.68-34.65 718.93-33.6 718.18-32.55 718.18-31.3L718.18-31.3 718.18-8.4Q718.18-7.1 718.93-6.05 719.68-5 721.53-5L721.53-5 729.93-5Q731.78-5 732.53-6.05 733.28-7.1 733.28-8.4L733.28-8.4 733.28-11.3Q733.28-13.65 736.23-13.65L736.23-13.65Q739.23-13.65 739.23-11.3L739.23-11.3ZM750.22 7L747.62 7Q745.87 7 745.77 4.65L745.77 4.65Q745.77 2.3 747.62 2.3L747.62 2.3 749.82 2.3Q751.57 2.3 752.12 1.25L752.12 1.25 752.82-0.6 753.07-1.4 743.32-26.95 743.32-26.9Q742.92-28.1 743.5-28.95 744.07-29.8 745.27-30.2L745.27-30.2Q746.17-30.45 746.72-30.45L746.72-30.45Q748.17-30.45 748.52-28.75L748.52-28.75 752.47-18.9 755.82-10.7 761.17-28.65Q761.62-30.45 763.27-30.45L763.27-30.45Q763.67-30.45 764.57-30.2L764.57-30.2Q765.77-29.85 766.3-29.05 766.82-28.25 766.52-27.15L766.52-27.15Q764.27-19.5 761.95-11.75 759.62-4 757.37 3.6L757.37 3.6Q757.12 4.15 756.6 4.73 756.07 5.3 755.22 5.83 754.37 6.35 753.12 6.68 751.87 7 750.22 7L750.22 7ZM776.27-25.4L776.22-2.1Q776.22-0.9 775.37-0.3 774.52 0.3 773.52 0.3L773.52 0.3Q770.77 0.3 770.77-2.1L770.77-2.1 770.77-37.6Q770.77-40 773.52-40L773.52-40Q776.27-40 776.27-37.6L776.27-37.6 776.27-30.1 786.82-30.1Q789.37-30.1 792.12-28.2L792.12-28.2Q794.82-26.3 794.82-22.2L794.82-22.2 794.82-7.3Q794.82-3.15 792.37-1.6L792.37-1.6Q789.92 0 786.77 0L786.77 0 780.87 0Q779.07 0 778.97-2.35L778.97-2.35Q778.97-4.7 780.87-4.7L780.87-4.7 785.87-4.7Q787.72-4.7 788.52-5.38 789.32-6.05 789.32-7.35L789.32-7.35 789.32-21.75Q789.32-23.05 788.52-24.25L788.52-24.25 788.57-24.2Q787.92-25.4 785.92-25.4L785.92-25.4 776.27-25.4ZM806.47-22.15L806.47-8Q806.47-6.8 807.24-5.75 808.02-4.7 809.87-4.7L809.87-4.7 816.12-4.7Q817.97-4.7 818.74-5.63 819.52-6.55 819.52-7.75L819.52-7.75 819.52-8.3Q819.52-10.65 822.27-10.65L822.27-10.65Q825.02-10.65 825.02-8.3L825.02-8.3 825.02-7.7Q825.02-5.6 824.34-4.25 823.67-2.9 822.32-1.9L822.32-1.9Q819.67 0 817.02 0L817.02 0 808.62 0Q805.97 0 803.47-1.9L803.47-1.9Q802.27-2.9 801.62-4.42 800.97-5.95 800.97-7.95L800.97-7.95 800.97-22.2Q800.97-26.25 803.47-28.2L803.47-28.2Q804.72-29.1 806.04-29.63 807.37-30.15 808.62-30.15L808.62-30.15 817.02-30.15Q818.22-30.15 819.67-29.68 821.12-29.2 822.37-28.4L822.37-28.4Q823.57-27.55 824.29-26.05 825.02-24.55 825.02-22.5L825.02-22.5 825.02-15.75Q825.02-14.6 824.34-13.7 823.67-12.8 821.87-12.8L821.87-12.8 811.07-12.8Q809.27-12.8 809.17-15.15L809.17-15.15Q809.17-17.5 811.07-17.5L811.07-17.5 819.57-17.5 819.52-22.15Q819.52-23.4 818.74-24.43 817.97-25.45 816.12-25.45L816.12-25.45 809.87-25.45Q808.02-25.45 807.24-24.43 806.47-23.4 806.47-22.15L806.47-22.15ZM836.77-22.75L836.77-2.1Q836.77 0.3 834.02 0.3L834.02 0.3Q831.17 0.3 831.17-2.1L831.17-2.1 831.17-22.8Q831.17-26.9 833.62-28.5L833.62-28.5Q836.07-30.1 839.27-30.1L839.27-30.1 844.97-30.1Q846.82-30.1 846.82-27.75L846.82-27.75Q846.92-25.4 844.97-25.4L844.97-25.4 839.67-25.4Q837.87-25.4 837.32-24.7 836.77-24 836.77-22.75L836.77-22.75ZM860.81-22.85L870.46-22.85Q871.76-22.85 873.16-22.3 874.56-21.75 875.86-20.85L875.86-20.85 875.81-20.85Q877.11-19.95 877.81-18.4 878.51-16.85 878.51-14.85L878.51-14.85 878.51-8Q878.51-3.95 875.81-1.95L875.81-1.95Q874.51-1 873.14-0.48 871.76 0.05 870.46 0.05L870.46 0.05 859.56 0.05Q858.26 0.05 856.89-0.48 855.51-1 854.21-1.95L854.21-1.95Q851.51-3.95 851.51-8L851.51-8 851.51-11.3Q851.51-13.65 854.46-13.65L854.46-13.65Q857.46-13.65 857.46-11.3L857.46-11.3 857.46-8.4Q857.46-7.1 858.21-6.05 858.96-5 860.81-5L860.81-5 869.21-5Q871.06-5 871.81-6.05 872.56-7.1 872.56-8.4L872.56-8.4 872.56-14.45Q872.56-15.7 871.81-16.78 871.06-17.85 869.21-17.85L869.21-17.85 859.56-17.85Q856.96-17.85 854.21-19.75L854.21-19.75Q851.51-21.85 851.51-25.8L851.51-25.8 851.51-31.75Q851.51-33.75 852.21-35.27 852.91-36.8 854.21-37.75L854.21-37.75 854.16-37.75Q855.46-38.6 856.86-39.15 858.26-39.7 859.56-39.7L859.56-39.7 870.46-39.7Q871.76-39.7 873.16-39.15 874.56-38.6 875.86-37.75L875.86-37.75 875.81-37.75Q877.11-36.8 877.81-35.27 878.51-33.75 878.51-31.75L878.51-31.75 878.51-28.8Q878.51-26.45 875.51-26.45L875.51-26.45Q872.56-26.45 872.56-28.8L872.56-28.8 872.56-31.3Q872.56-32.55 871.81-33.6 871.06-34.65 869.21-34.65L869.21-34.65 860.81-34.65Q858.96-34.65 858.21-33.6 857.46-32.55 857.46-31.3L857.46-31.3 857.46-26.2Q857.46-24.9 858.21-23.88 858.96-22.85 860.81-22.85L860.81-22.85ZM891.41-22.15L891.41-8Q891.41-6.8 892.19-5.75 892.96-4.7 894.81-4.7L894.81-4.7 901.06-4.7Q902.91-4.7 903.69-5.63 904.46-6.55 904.46-7.75L904.46-7.75 904.46-8.3Q904.46-10.65 907.21-10.65L907.21-10.65Q909.96-10.65 909.96-8.3L909.96-8.3 909.96-7.7Q909.96-5.6 909.29-4.25 908.61-2.9 907.26-1.9L907.26-1.9Q904.61 0 901.96 0L901.96 0 893.56 0Q890.91 0 888.41-1.9L888.41-1.9Q887.21-2.9 886.56-4.42 885.91-5.95 885.91-7.95L885.91-7.95 885.91-22.2Q885.91-26.25 888.41-28.2L888.41-28.2Q889.66-29.1 890.99-29.63 892.31-30.15 893.56-30.15L893.56-30.15 901.96-30.15Q903.16-30.15 904.61-29.68 906.06-29.2 907.31-28.4L907.31-28.4Q908.51-27.55 909.24-26.05 909.96-24.55 909.96-22.5L909.96-22.5 909.96-15.75Q909.96-14.6 909.29-13.7 908.61-12.8 906.81-12.8L906.81-12.8 896.01-12.8Q894.21-12.8 894.11-15.15L894.11-15.15Q894.11-17.5 896.01-17.5L896.01-17.5 904.51-17.5 904.46-22.15Q904.46-23.4 903.69-24.43 902.91-25.45 901.06-25.45L901.06-25.45 894.81-25.45Q892.96-25.45 892.19-24.43 891.41-23.4 891.41-22.15L891.41-22.15ZM940.36-10.3L940.36-7.95Q940.36-3.85 937.66-1.9L937.66-1.9Q935.01 0 932.36 0L932.36 0 923.96 0Q921.31 0 918.81-1.9L918.81-1.9Q917.61-2.9 916.96-4.42 916.31-5.95 916.31-7.95L916.31-7.95 916.31-22.2Q916.31-26.25 918.81-28.2L918.81-28.2Q920.06-29.1 921.38-29.63 922.71-30.15 923.96-30.15L923.96-30.15 932.36-30.15Q933.56-30.15 935.01-29.68 936.46-29.2 937.71-28.4L937.71-28.4Q938.91-27.55 939.63-26.05 940.36-24.55 940.36-22.5L940.36-22.5 940.36-20Q940.36-17.6 937.61-17.6L937.61-17.6Q934.86-17.6 934.86-20L934.86-20 934.86-22.15Q934.86-23.4 934.08-24.43 933.31-25.45 931.46-25.45L931.46-25.45 925.21-25.45Q923.36-25.45 922.58-24.43 921.81-23.4 921.81-22.15L921.81-22.15 921.81-8Q921.81-6.8 922.58-5.75 923.36-4.7 925.21-4.7L925.21-4.7 931.46-4.7Q933.31-4.7 934.08-5.75 934.86-6.8 934.86-8L934.86-8 934.86-10.3Q934.86-12.65 937.61-12.65L937.61-12.65Q940.36-12.65 940.36-10.3L940.36-10.3Z" opacity="1" transform="matrix(1,0,0,1,0,0)" fill="#000000" class="undefined-text-1" data-fill-palette-color="secondary" id="text-1"></path></svg></g></svg></g></svg></g></svg></g></svg></g></svg></g></svg></g><g mask="url(#4b93f53f-bda0-437c-a56d-6e5b404fed0c)"><g transform="matrix(2.452, 0, 0, 2.452, 87.02645504760741, 1)"><svg version="1.0" xmlns="http://www.w3.org/2000/svg" xmlns:xlink="http://www.w3.org/1999/xlink" x="0" y="0" viewBox="0 -1.1920928955078125e-7 90.32099914550781 100" enable-background="new 0 0 90.321 100" xml:space="preserve" width="90.32099914550781" height="100" class="icon-none" data-fill-palette-color="accent" id="none"><path fill-rule="evenodd" clip-rule="evenodd" d="M77.6 83.44v-6.752H62.644v-3.862h25.388c0.911 0 1.65-0.747 1.65-1.667V1.669c0-0.922-0.739-1.669-1.65-1.669H1.97C1.059 0 0.32 0.747 0.32 1.669v69.49c0 0.92 0.739 1.667 1.65 1.667h25.693v3.862H12.72v6.752L0 92.602V100h90.321v-7.398L77.6 83.44zM6.36 66.249V6.041c0-0.795 0.636-1.44 1.417-1.44h74.127c0.781 0 1.417 0.646 1.417 1.44v60.208c0 0.796-0.636 1.438-1.417 1.438H7.777C6.996 67.688 6.36 67.045 6.36 66.249zM4.444 92.278l11.458-8.204h58.518l11.443 8.204H4.444z" fill="#000000" data-fill-palette-color="accent"></path></svg></g></g></svg></g><defs><mask id="13ad1cf7-53f9-4831-8afe-af3de1dcdcf1"><rect width="640" height="400" fill="white"></rect><rect width="348.05760000000004" height="111.48831624948099" fill="black" x="145.97119999999998" y="144.2558418752595" id="transform-me" transform="matrix(1,0,0,1,-122.24000000000001,-76.4)"></rect></mask><mask id="96758ee7-eda9-4684-9b0e-ca266c00111d"><rect width="640" height="400" fill="white"></rect><rect width="348.05760000000004" height="111.48831624948099" fill="black" x="145.97119999999998" y="144.2558418752595" id="transform-me" transform="matrix(1,0,0,1,-122.24000000000001,-76.4)"></rect></mask><mask id="5046eefe-40ec-4245-a70f-27e5aa89cf54"><rect width="640" height="400" fill="white"></rect><rect width="348.05760000000004" height="111.48831624948099" fill="black" x="145.97119999999998" y="144.2558418752595" id="transform-me" transform="matrix(1,0,0,1,-122.24000000000001,-76.4)"></rect></mask><mask id="dc5dd079-d49b-4826-999f-952cf054a829"><rect width="640" height="400" fill="white"></rect><rect width="348.05760000000004" height="111.48831624948099" fill="black" x="145.97119999999998" y="144.2558418752595" id="transform-me" transform="matrix(1,0,0,1,-122.24000000000001,-76.4)"></rect></mask><mask id="87dcf1dd-e4bb-40f2-93e3-6c9fa98fd0e8"><rect width="640" height="400" fill="white"></rect><rect width="348.05760000000004" height="111.48831624948099" fill="black" x="145.97119999999998" y="144.2558418752595" id="transform-me" transform="matrix(1,0,0,1,-122.24000000000001,-76.4)"></rect></mask><mask id="de9a55dc-ccaf-4689-8ed7-a82297c47089"><rect width="640" height="400" fill="white"></rect><rect width="348.05760000000004" height="111.48831624948099" fill="black" x="145.97119999999998" y="144.2558418752595" id="transform-me" transform="matrix(1,0,0,1,-122.24000000000001,-76.4)"></rect></mask><mask id="03996a87-ee28-477b-8e48-6fa370a5a9f1"><rect width="640" height="400" fill="white"></rect><rect width="348.05760000000004" height="111.48831624948099" fill="black" x="145.97119999999998" y="144.2558418752595" id="transform-me" transform="matrix(1,0,0,1,-122.24000000000001,-76.4)"></rect></mask><mask id="54bc25c6-d10b-4601-8849-e6296410d7a5"><rect width="640" height="400" fill="white"></rect><rect width="348.05760000000004" height="111.48831624948099" fill="black" x="145.97119999999998" y="144.2558418752595" id="transform-me" transform="matrix(1,0,0,1,-122.24000000000001,-76.4)"></rect></mask><mask id="2cdd4d06-8723-48f3-85d5-bcbb7050549e"><rect width="640" height="400" fill="white"></rect><rect width="348.05760000000004" height="111.48831624948099" fill="black" x="145.97119999999998" y="144.2558418752595" id="transform-me" transform="matrix(1,0,0,1,-122.24000000000001,-76.4)"></rect></mask><mask id="247a3a06-6578-4d39-8666-a28fcc8df64c"><rect width="640" height="400" fill="white"></rect><rect width="348.05760000000004" height="111.48831624948099" fill="black" x="145.97119999999998" y="144.2558418752595" id="transform-me" transform="matrix(1,0,0,1,-122.24000000000001,-76.4)"></rect></mask><mask id="824aa0e3-3064-4a2b-8cad-353456328003"><rect width="640" height="400" fill="white"></rect><rect width="348.05760000000004" height="111.48831624948099" fill="black" x="145.97119999999998" y="144.2558418752595" id="transform-me" transform="matrix(1,0,0,1,-122.24000000000001,-76.4)"></rect></mask><mask id="93adfe52-5ca6-4688-83b7-8640b9285e56"><rect width="640" height="400" fill="white"></rect><rect width="348.05760000000004" height="111.48831624948099" fill="black" x="145.97119999999998" y="144.2558418752595" id="transform-me" transform="matrix(1,0,0,1,-122.24000000000001,-76.4)"></rect></mask><mask id="d349dc2c-e341-4efd-a3d2-188c912553eb"><rect width="640" height="400" fill="white"></rect><rect width="348.05760000000004" height="111.48831624948099" fill="black" x="145.97119999999998" y="144.2558418752595" id="transform-me" transform="matrix(1,0,0,1,-122.24000000000001,-76.4)"></rect></mask><mask id="1e2e277b-cb01-48fd-a726-a8fa66289d03"><rect width="640" height="400" fill="white"></rect><rect width="348.05760000000004" height="111.48831624948099" fill="black" x="145.97119999999998" y="144.2558418752595" id="transform-me" transform="matrix(1,0,0,1,-122.24000000000001,-76.4)"></rect></mask><mask id="f970ac59-328d-4eba-a161-e921f5e94800"><rect width="640" height="400" fill="white"></rect><rect width="348.05760000000004" height="111.48831624948099" fill="black" x="145.97119999999998" y="144.2558418752595" id="transform-me" transform="matrix(1,0,0,1,-122.24000000000001,-76.4)"></rect></mask><mask id="bc01942e-175c-4bb6-8495-450d41af1421"><rect width="640" height="400" fill="white"></rect><rect width="348.05760000000004" height="111.48831624948099" fill="black" x="145.97119999999998" y="144.2558418752595" id="transform-me" transform="matrix(1,0,0,1,-122.24000000000001,-76.4)"></rect></mask><mask id="420d9498-78f0-43cc-a910-da63e4aad535"><rect width="640" height="400" fill="white"></rect><rect width="348.05760000000004" height="111.48831624948099" fill="black" x="145.97119999999998" y="144.2558418752595" id="transform-me" transform="matrix(1,0,0,1,-122.24000000000001,-76.4)"></rect></mask><mask id="332ebae0-8f11-42e7-802e-8693404ba849"><rect width="640" height="400" fill="white"></rect><rect width="348.05760000000004" height="111.48831624948099" fill="black" x="145.97119999999998" y="144.2558418752595" id="transform-me" transform="matrix(1,0,0,1,-122.24000000000001,-76.4)"></rect></mask><mask id="d4644c96-ad3f-4cd8-92d4-16bd712286fe"><rect width="640" height="400" fill="white"></rect><rect width="348.05760000000004" height="111.48831624948099" fill="black" x="145.97119999999998" y="144.2558418752595" id="transform-me" transform="matrix(1,0,0,1,-122.24000000000001,-76.4)"></rect></mask><mask id="0966dd90-2907-4dfb-8f4d-3739073cfbd3"><rect width="640" height="400" fill="white"></rect><rect width="348.05760000000004" height="111.48831624948099" fill="black" x="145.97119999999998" y="144.2558418752595" id="transform-me" transform="matrix(1,0,0,1,-122.24000000000001,-76.4)"></rect></mask><mask id="1bc1a863-77a2-41e2-ab4a-a95e9361aafd"><rect width="640" height="400" fill="white"></rect><rect width="348.05760000000004" height="111.48831624948099" fill="black" x="145.97119999999998" y="144.2558418752595" id="transform-me" transform="matrix(1,0,0,1,-122.24000000000001,-76.4)"></rect></mask><mask id="a0fb8577-7328-4d96-94d9-65d362675ad5"><rect width="640" height="400" fill="white"></rect><rect width="348.05760000000004" height="111.48831624948099" fill="black" x="145.97119999999998" y="144.2558418752595" id="transform-me" transform="matrix(1,0,0,1,-122.24000000000001,-76.4)"></rect></mask><mask id="707835a3-4291-4803-8fe1-0295f2f8c1f2"><rect width="640" height="400" fill="white"></rect><rect width="348.05760000000004" height="111.48831624948099" fill="black" x="145.97119999999998" y="144.2558418752595" id="transform-me" transform="matrix(1,0,0,1,-122.24000000000001,-76.4)"></rect></mask><mask id="6b37ce46-82cc-422d-92da-4e099fdda51d"><rect width="640" height="400" fill="white"></rect><rect width="348.05760000000004" height="111.48831624948099" fill="black" x="145.97119999999998" y="144.2558418752595" id="transform-me" transform="matrix(1,0,0,1,-122.24000000000001,-76.4)"></rect></mask><mask id="21eb173f-75ae-472a-805d-375c70bf4059"><rect width="640" height="400" fill="white"></rect><rect width="348.05760000000004" height="111.48831624948099" fill="black" x="145.97119999999998" y="144.2558418752595" id="transform-me" transform="matrix(1,0,0,1,-122.24000000000001,-76.4)"></rect></mask><mask id="ac6f31a1-b22e-4c98-afed-c30963334a7a"><rect width="640" height="400" fill="white"></rect><rect width="348.05760000000004" height="111.48831624948099" fill="black" x="145.97119999999998" y="144.2558418752595" id="transform-me" transform="matrix(1,0,0,1,-122.24000000000001,-76.4)"></rect></mask><mask id="878f44e6-2e98-4b62-bbf1-e2ed0aee6706"><rect width="640" height="400" fill="white"></rect><rect width="435.072" height="139.36039531185122" fill="black" x="102.464" y="130.3198023440744" id="transform-me" transform="matrix(1,0,0,1,-122.24000000000001,-76.4)"></rect></mask><mask id="a53c021c-9498-4bc2-a22b-a168e00174c4"><rect width="640" height="400" fill="white"></rect><rect width="348.05760000000004" height="111.48831624948099" fill="black" x="145.97119999999998" y="144.2558418752595" id="transform-me" transform="matrix(1,0,0,1,-122.24000000000001,-76.4)"></rect></mask><mask id="59be1ddb-0da3-48a7-9187-be314b79fb10"><rect width="640" height="400" fill="white"></rect><rect width="435.072" height="139.36039531185122" fill="black" x="102.464" y="130.3198023440744" id="transform-me" transform="matrix(1,0,0,1,-122.24000000000001,-76.4)"></rect></mask><mask id="4b93f53f-bda0-437c-a56d-6e5b404fed0c"><rect width="640" height="400" fill="white"></rect><rect width="348.05760000000004" height="111.48831624948099" fill="black" x="145.97119999999998" y="144.2558418752595" id="transform-me" transform="matrix(1,0,0,1,-122.24000000000001,-76.4)"></rect></mask></defs></svg><rect width="395.52" height="247.2" fill="none" stroke="none" visibility="hidden"></rect></g></svg></g></svg>